<svg xmlns="http://www.w3.org/2000/svg" width="240.289" height="44.708" viewBox="0 0 240.289 44.708"><defs><style>.a{fill:#baa769;}.b{fill:#30646f;}</style></defs><g transform="translate(-4.8 -14.7)"><path class="a" d="M88.566,57.206c1.371,0,2.057-.49,2.057-1.518a1.2,1.2,0,0,0-.49-1.077,2.758,2.758,0,0,0-1.567-.343h-1.42v2.938Zm-.245-4.7a1.849,1.849,0,0,0,1.322-.392,1.233,1.233,0,0,0,.441-.979,1.019,1.019,0,0,0-.441-.93,2.4,2.4,0,0,0-1.322-.294H87.146v2.546h1.175ZM84.649,48h3.82a8.254,8.254,0,0,1,1.616.147,5.244,5.244,0,0,1,1.322.441,2.4,2.4,0,0,1,.881.832,2.643,2.643,0,0,1,.294,1.322,3.78,3.78,0,0,1-.1.735,2.992,2.992,0,0,1-.343.686,3.324,3.324,0,0,1-.588.588,4.341,4.341,0,0,1-.832.392v.049a3.475,3.475,0,0,1,1.812.832,2.556,2.556,0,0,1,.588,1.763,2.722,2.722,0,0,1-.343,1.469,3.7,3.7,0,0,1-.93,1.028,3.876,3.876,0,0,1-1.371.588,6.337,6.337,0,0,1-1.714.2H84.6V48Z" transform="translate(-40.723 -16.993)"/><path class="a" d="M115.37,54.562l-.245-1.028c-.147-.539-.294-1.175-.441-1.763-.147-.637-.294-1.224-.441-1.812h-.049c-.147.588-.294,1.224-.441,1.812q-.22.955-.441,1.763l-.294,1.028Zm.49,1.959h-3.428l-.686,2.644H109.2L112.677,48h3.036l3.477,11.165h-2.644Z" transform="translate(-53.277 -16.993)"/><path class="a" d="M137,53.527a6.247,6.247,0,0,1,.441-2.448,6.024,6.024,0,0,1,1.175-1.861,4.737,4.737,0,0,1,1.763-1.126,6.233,6.233,0,0,1,2.155-.392,4.544,4.544,0,0,1,2.057.441,5.3,5.3,0,0,1,1.42,1.028l-1.371,1.567a4.971,4.971,0,0,0-.881-.637,2.623,2.623,0,0,0-1.175-.245,2.959,2.959,0,0,0-1.175.245,2.557,2.557,0,0,0-.93.686,3.5,3.5,0,0,0-.588,1.126,4.76,4.76,0,0,0-.2,1.518,4.105,4.105,0,0,0,.783,2.693,2.893,2.893,0,0,0,2.35.93,3.307,3.307,0,0,0,.686-.1,1.811,1.811,0,0,0,.539-.245V54.8h-1.861V52.744h4.064v5.142a5.367,5.367,0,0,1-1.567.979,6.027,6.027,0,0,1-2.155.392,5.959,5.959,0,0,1-2.106-.392,4.838,4.838,0,0,1-1.714-1.077,5.274,5.274,0,0,1-1.175-1.812A4.885,4.885,0,0,1,137,53.527" transform="translate(-67.464 -16.84)"/><path class="a" d="M166.5,48h2.546v6.219a3.917,3.917,0,0,0,.49,2.3,1.7,1.7,0,0,0,1.42.637,1.734,1.734,0,0,0,1.469-.637,3.766,3.766,0,0,0,.539-2.3V48h2.448v5.974a6.347,6.347,0,0,1-1.126,4.113,4.2,4.2,0,0,1-3.281,1.273,4.315,4.315,0,0,1-3.33-1.273,5.989,5.989,0,0,1-1.126-4.113V48Z" transform="translate(-82.518 -16.993)"/><path class="a" d="M196.1,48h7v2.155h-4.456v2.253h3.771v2.057h-3.771v2.6H203.3v2.106h-7.2Z" transform="translate(-97.623 -16.993)"/><path class="a" d="M222.836,50.155H219.8V48h8.618v2.155h-3.036v9.01h-2.546Z" transform="translate(-109.718 -16.993)"/><path class="a" d="M248.536,50.155H245.5V48h8.618v2.155h-3.036v9.01h-2.546Z" transform="translate(-122.833 -16.993)"/><path class="a" d="M273,48h6.954v2.155H275.5v2.253h3.82v2.057H275.5v2.6h4.652v2.106H273Z" transform="translate(-136.866 -16.993)"/><path class="a" d="M315.838,48.712a1.041,1.041,0,0,0-.735-.343,1,1,0,0,0-1.028,1.028,1.412,1.412,0,0,0,.294.93,8.962,8.962,0,0,0,.637.784,3.888,3.888,0,0,0,.832-.686,1.334,1.334,0,0,0,.343-.979,1.664,1.664,0,0,0-.343-.735m-2.2,5.093a1.53,1.53,0,0,0-.539.441,1.268,1.268,0,0,0-.343.539,1.356,1.356,0,0,0-.147.637,1.3,1.3,0,0,0,.147.588,1.759,1.759,0,0,0,.343.49,2.021,2.021,0,0,0,.539.343,1.355,1.355,0,0,0,.637.147,1.974,1.974,0,0,0,1.077-.294,5.841,5.841,0,0,0,.881-.735l-2.008-2.448a2.181,2.181,0,0,0-.588.294m2.35,4.7a4.2,4.2,0,0,1-1.763.343,4.616,4.616,0,0,1-1.469-.245,3.107,3.107,0,0,1-1.175-.686,3.385,3.385,0,0,1-.784-1.077,3.577,3.577,0,0,1-.294-1.469,4.169,4.169,0,0,1,.2-1.126,3.723,3.723,0,0,1,.588-.93,3.9,3.9,0,0,1,.832-.735c.294-.2.637-.392.979-.588a11.921,11.921,0,0,1-.784-1.126,2.915,2.915,0,0,1-.294-1.322,2.493,2.493,0,0,1,.245-1.077,2.239,2.239,0,0,1,.686-.832,3.153,3.153,0,0,1,.979-.539,2.873,2.873,0,0,1,1.126-.2,3.215,3.215,0,0,1,1.224.2,2.591,2.591,0,0,1,1.028.539,2.393,2.393,0,0,1,.686.881,3.024,3.024,0,0,1,.245,1.224,2.512,2.512,0,0,1-.588,1.714,4.336,4.336,0,0,1-1.469,1.175L317.7,54.49c.1-.2.2-.441.294-.686l.147-.735h2.008a7.608,7.608,0,0,1-.343,1.518,5.5,5.5,0,0,1-.783,1.371l2.351,2.742h-2.84l-.93-1.175a11.863,11.863,0,0,1-1.616.979" transform="translate(-156.003 -16.432)"/><path class="a" d="M353.2,53.527a6.247,6.247,0,0,1,.441-2.448,6.023,6.023,0,0,1,1.175-1.861,4.549,4.549,0,0,1,1.714-1.126,5.692,5.692,0,0,1,2.057-.392,4.211,4.211,0,0,1,1.91.441,5.3,5.3,0,0,1,1.42,1.028l-1.371,1.567a4.972,4.972,0,0,0-.881-.637,2.276,2.276,0,0,0-1.028-.245,2.669,2.669,0,0,0-1.077.245,2.393,2.393,0,0,0-.881.686,3.5,3.5,0,0,0-.588,1.126,4.761,4.761,0,0,0-.2,1.518,4.4,4.4,0,0,0,.735,2.693,2.517,2.517,0,0,0,3.134.637,4.388,4.388,0,0,0,.93-.735l1.371,1.518a4.3,4.3,0,0,1-1.616,1.224,4.252,4.252,0,0,1-1.959.392,5.692,5.692,0,0,1-2.057-.392,4.647,4.647,0,0,1-1.665-1.077,5.18,5.18,0,0,1-1.126-1.812,5.441,5.441,0,0,1-.441-2.35" transform="translate(-177.793 -16.84)"/><path class="a" d="M382.1,57.556a3.615,3.615,0,0,0,.392,1.763,1.227,1.227,0,0,0,1.175.637,1.328,1.328,0,0,0,1.175-.637,4.163,4.163,0,0,0,0-3.526,1.4,1.4,0,0,0-2.35,0,2.945,2.945,0,0,0-.392,1.763m-2.6,0a4.9,4.9,0,0,1,.343-1.91,3.991,3.991,0,0,1,.93-1.371,3.913,3.913,0,0,1,1.322-.881,4.241,4.241,0,0,1,1.567-.294,4.436,4.436,0,0,1,1.567.294,3.914,3.914,0,0,1,1.322.881,4.523,4.523,0,0,1,.93,1.371,4.59,4.59,0,0,1,.343,1.91,4.9,4.9,0,0,1-.343,1.91,3.992,3.992,0,0,1-.93,1.371,3.913,3.913,0,0,1-1.322.881,4.326,4.326,0,0,1-3.134,0,3.913,3.913,0,0,1-1.322-.881,4.522,4.522,0,0,1-.93-1.371,4.9,4.9,0,0,1-.343-1.91" transform="translate(-191.215 -19.596)"/><path class="a" d="M405.7,66.367a1.551,1.551,0,0,1,.441-1.126,1.537,1.537,0,0,1,2.155,0,1.66,1.66,0,0,1,0,2.253,1.537,1.537,0,0,1-2.155,0,1.552,1.552,0,0,1-.441-1.126" transform="translate(-204.585 -25.567)"/><rect class="b" width="161.352" height="6.464" transform="translate(43.093 14.7)"/><rect class="b" width="161.352" height="6.464" transform="translate(43.093 52.944)"/><path class="b" d="M478.978,56.478l3.624-3.624-3.624-3.624a5.125,5.125,0,1,0,0,7.247" transform="translate(-237.513 -16.853)"/><path class="b" d="M8.424,49.231,4.8,52.854l3.624,3.624a5.125,5.125,0,1,0,0-7.247" transform="translate(0 -16.853)"/></g></svg>